<?xml version="1.0" encoding="UTF-8"?>
<svg id="_レイヤー_1" data-name="レイヤー_1" xmlns="http://www.w3.org/2000/svg" viewBox="0 0 192 192">
  <defs>
    <style>
      .cls-1 {
        fill: #fff;
      }

      .cls-2 {
        fill: #f3270f;
      }

      .cls-3 {
        fill: #6dd2d3;
      }

      .cls-4 {
        fill: #ffc5bb;
      }
    </style>
  </defs>
  <rect class="cls-1" width="192" height="192"/>
  <g>
    <path class="cls-3" d="M85.97,116.11l2.88-2.3c.13-.1.25-.21.36-.32.23-.22.42-.46.58-.71.16-.25.29-.5.39-.77.15-.4.22-.81.22-1.21,0-1.09-.52-2.18-1.56-3.01l-14.45-11.54c-4.82-3.85-10.44-9-10.83-15.03-.4-6.1.68-11.47,10.16-19l16.43-13.13c3.4-2.71,8.22-2.71,11.62,0l18.84,15.04c3.89-3.47,7.51-7.71,7.82-12.51.4-6.1-.68-11.47-10.16-19l-16.43-13.13c-3.4-2.71-8.22-2.71-11.62,0l-63.57,50.76c-7.54,6.02-7.54,15.88,0,21.9l44.73,35.72c1-.89,2.02-1.74,3.01-2.53l11.57-9.24Z"/>
    <path class="cls-4" d="M165.34,99.85l-44.73-35.72c-1,.89-2.02,1.74-3.01,2.53l-14.45,11.54c-1.04.83-1.56,1.92-1.56,3.01,0,.41.07.82.22,1.21.1.26.23.52.39.77s.36.48.58.71c.11.11.24.22.36.32l2.88,2.3,11.57,9.24c4.82,3.85,10.44,9,10.83,15.03.4,6.1-.68,11.47-10.16,19l-16.43,13.13c-3.4,2.71-8.22,2.71-11.62,0l-18.84-15.04c-3.89,3.47-7.51,7.71-7.82,12.51-.4,6.1.68,11.47,10.16,19l16.43,13.13c3.4,2.71,8.22,2.71,11.62,0l63.57-50.76c7.54-6.02,7.54-15.88,0-21.9Z"/>
    <path class="cls-2" d="M101.85,142.92l16.43-13.13c9.47-7.53,10.56-12.91,10.16-19-.4-6.04-6.02-11.18-10.83-15.04l-11.57-9.24-2.88-2.3c-.13-.1-.25-.21-.36-.32-.23-.22-.42-.46-.58-.71s-.29-.5-.39-.77c-.15-.4-.22-.81-.22-1.21,0-1.09.52-2.18,1.56-3.01l14.45-11.54c.99-.79,2.01-1.63,3.01-2.53l-18.84-15.04c-3.4-2.71-8.22-2.71-11.62,0l-16.43,13.13c-9.47,7.53-10.56,12.91-10.16,19,.4,6.04,6.02,11.18,10.83,15.04l14.45,11.54c1.04.83,1.56,1.92,1.56,3.01,0,.41-.07.82-.22,1.21-.1.26-.23.52-.39.77-.16.25-.36.48-.58.71-.11.11-.24.22-.36.32l-2.88,2.3-11.57,9.24c-.99.79-2.01,1.63-3.01,2.53l18.84,15.04c3.4,2.71,8.22,2.71,11.62,0Z"/>
  </g>
</svg>